<?xml version="1.0" standalone="no"?>
<!DOCTYPE svg PUBLIC "-//W3C//DTD SVG 20010904//EN"
 "http://www.w3.org/TR/2001/REC-SVG-20010904/DTD/svg10.dtd">
<svg version="1.0" xmlns="http://www.w3.org/2000/svg"
 width="512.000000pt" height="512.000000pt" viewBox="0 0 512.000000 512.000000"
 preserveAspectRatio="xMidYMid meet">
<metadata>
Created by potrace 1.11, written by Peter Selinger 2001-2013
</metadata>
<g transform="translate(0.000000,512.000000) scale(0.100000,-0.100000)"
fill="#000000" stroke="none">
<path d="M2470 5096 c-279 -59 -499 -221 -634 -467 -33 -61 -72 -157 -82 -204
-2 -11 -6 -31 -10 -45 -3 -14 -8 -54 -11 -90 -3 -36 -11 -68 -17 -72 -8 -6 -8
-8 0 -8 7 0 12 -25 13 -66 1 -37 8 -98 17 -138 17 -76 75 -224 106 -268 10
-14 18 -28 18 -31 0 -2 -47 -21 -105 -41 l-106 -38 -32 25 c-65 49 -169 94
-247 105 -108 15 -202 6 -297 -29 -135 -50 -143 -67 -143 -314 0 -102 -4 -185
-9 -185 -11 0 -185 -172 -241 -238 -67 -79 -151 -210 -201 -311 l-44 -90 -101
-1 c-128 0 -188 -17 -241 -70 -73 -71 -76 -95 -76 -485 -1 -386 4 -414 71
-479 61 -60 84 -68 223 -73 l125 -6 36 -76 c45 -94 159 -267 230 -346 68 -76
176 -183 206 -202 22 -15 22 -18 22 -242 0 -271 3 -298 41 -378 45 -94 124
-167 221 -205 47 -19 77 -22 263 -24 116 -1 232 2 259 7 145 27 273 146 309
289 l14 54 43 -3 c24 -1 65 -6 92 -10 65 -11 408 -11 490 0 36 4 88 10 115 13
26 3 63 8 81 12 26 5 32 3 32 -10 0 -78 76 -209 157 -271 91 -69 132 -78 377
-80 120 -1 236 2 258 7 96 21 205 100 253 182 56 96 58 109 60 423 l2 292 71
73 c98 101 114 120 187 228 112 166 186 334 224 506 30 136 35 182 40 331 1
24 5 31 18 29 46 -7 155 34 199 75 17 16 26 18 49 9 49 -18 138 -14 191 9 109
48 152 133 105 205 -34 50 -88 68 -143 47 -23 -9 -23 -8 -21 59 1 54 -4 78
-23 116 -29 58 -77 102 -119 110 -59 11 -70 11 -105 2 -136 -36 -193 -180
-127 -322 29 -63 28 -76 -8 -76 -28 0 -55 24 -55 50 0 11 -4 29 -9 42 -5 13
-19 55 -31 93 -23 76 -66 184 -101 255 -64 131 -202 322 -304 420 -133 128
-151 144 -279 229 -79 54 -326 185 -326 174 0 -3 -6 -1 -12 4 -7 6 -30 16 -51
23 l-37 12 28 36 c40 53 75 110 99 162 24 51 68 195 78 253 11 70 6 244 -11
319 -15 71 -80 248 -94 258 -4 3 -14 19 -23 36 -21 40 -101 139 -152 187 -22
20 -72 59 -112 86 -39 27 -69 52 -65 56 4 4 2 5 -3 4 -6 -2 -46 11 -90 28 -44
18 -107 40 -140 49 -82 22 -300 27 -385 10z"/>
</g>
</svg>
